<?xml version="1.0" standalone="no"?>
<!DOCTYPE svg PUBLIC "-//W3C//DTD SVG 20010904//EN"
 "http://www.w3.org/TR/2001/REC-SVG-20010904/DTD/svg10.dtd">
<svg version="1.0" xmlns="http://www.w3.org/2000/svg"
 width="266.000000pt" height="265.000000pt" viewBox="0 0 266.000000 265.000000"
 preserveAspectRatio="xMidYMid meet">

<g transform="translate(0.000000,265.000000) scale(0.100000,-0.100000)"
fill="#000000" stroke="none">
<path d="M1186 2619 c-416 -48 -797 -307 -993 -674 -104 -196 -143 -343 -150
-571 -10 -299 53 -525 214 -769 178 -267 455 -461 778 -542 101 -25 126 -27
300 -27 173 0 199 2 298 27 386 97 692 339 862 682 108 218 140 368 133 627
-6 193 -26 291 -92 455 -216 528 -779 859 -1350 792z m184 -134 c0 -24 -3 -25
-60 -25 -57 0 -60 1 -60 25 0 24 3 25 60 25 57 0 60 -1 60 -25z m-170 -9 c0
-20 -7 -25 -57 -35 -31 -6 -57 -10 -58 -8 -2 1 -5 12 -9 23 -6 19 -1 23 41 32
76 16 83 15 83 -12z m317 18 c25 -5 29 -10 25 -31 -4 -19 -9 -23 -26 -19 -11
3 -38 6 -58 6 -34 0 -38 3 -38 25 0 22 4 25 34 25 18 0 47 -3 63 -6z m186 -44
c9 0 9 -37 -1 -44 -13 -8 -104 17 -109 31 -3 7 -3 20 0 28 5 13 12 13 54 0 26
-8 51 -15 56 -15z m-673 -12 c0 -19 -10 -26 -53 -40 -38 -12 -54 -13 -59 -5
-15 24 -7 36 35 50 61 22 77 21 77 -5z m800 -39 c45 -19 48 -23 38 -44 l-10
-23 -47 20 c-57 25 -63 31 -55 51 8 22 15 21 74 -4z m-963 -25 c4 -26 -94 -74
-108 -53 -16 26 -9 36 39 57 54 23 66 23 69 -4z m1135 -72 c25 -16 26 -20 14
-37 -14 -19 -15 -19 -48 -1 -65 35 -71 42 -57 64 14 22 26 19 91 -26z m-1288
2 c10 -26 8 -29 -38 -61 -43 -30 -45 -31 -61 -13 -16 18 -14 20 32 54 55 41
59 42 67 20z m1405 -94 c38 -33 43 -41 32 -54 -19 -23 -26 -20 -71 20 -34 31
-38 38 -27 55 6 10 14 19 17 19 3 -1 25 -18 49 -40z m-1539 -15 c10 -12 5 -22
-29 -56 -34 -33 -45 -38 -57 -28 -22 18 -17 35 24 68 43 35 45 36 62 16z
m1648 -97 c53 -62 55 -66 31 -78 -18 -10 -25 -7 -54 27 -37 42 -41 53 -23 71
16 16 16 16 46 -20z m-1768 -23 c10 -11 6 -23 -21 -60 -33 -47 -49 -54 -67
-32 -8 9 -1 25 26 60 40 52 44 54 62 32z m1884 -136 c27 -48 27 -51 9 -64 -21
-16 -21 -16 -56 46 -20 35 -23 49 -15 57 21 21 34 13 62 -39z m-1974 -15 c0
-12 -51 -104 -58 -104 -4 0 -14 5 -22 10 -12 8 -11 17 13 65 24 50 29 55 47
45 11 -6 20 -13 20 -16z m851 -224 c67 -121 125 -220 128 -220 3 0 60 98 126
218 l120 217 224 3 c193 2 223 0 218 -12 -5 -13 -193 -313 -419 -669 l-68
-108 0 -249 0 -250 -210 0 -210 0 0 249 0 249 -250 390 c-137 215 -250 394
-250 397 0 3 105 5 234 5 l234 0 123 -220z m1199 94 c19 -44 25 -74 16 -74 -2
0 -11 -3 -19 -6 -11 -4 -21 8 -36 42 -24 54 -26 70 -8 77 23 10 26 7 47 -39z
m-2141 -13 c13 -8 12 -17 -4 -65 -13 -39 -24 -55 -33 -51 -7 3 -18 5 -24 5
-12 0 -6 29 17 83 16 39 21 42 44 28z m2200 -163 c15 -64 14 -68 -12 -68 -20
0 -25 8 -35 51 -15 65 -15 67 6 72 23 5 27 -1 41 -55z m-2245 -7 c4 -5 1 -32
-5 -60 -9 -45 -14 -51 -36 -51 -21 0 -24 4 -20 23 3 12 9 39 12 60 5 27 12 37
26 37 10 0 20 -4 23 -9z m2270 -127 c3 -9 6 -36 6 -60 0 -40 -2 -44 -24 -44
-23 0 -24 4 -28 60 -3 56 -1 60 18 60 12 0 25 -7 28 -16z m-2294 -94 c0 -57
-1 -60 -25 -60 -24 0 -25 3 -25 60 0 57 1 60 25 60 24 0 25 -3 25 -60z m2302
-125 c-2 -36 -7 -65 -12 -65 -38 0 -48 28 -34 99 5 23 12 31 28 31 20 0 21 -4
18 -65z m-2302 -29 c0 -24 3 -51 6 -59 5 -15 -31 -35 -43 -24 -2 3 -7 33 -10
66 -6 61 -6 61 21 61 24 0 26 -3 26 -44z m2285 -86 c4 -6 1 -35 -5 -66 -11
-50 -14 -54 -33 -48 -12 3 -23 7 -24 8 -2 1 3 28 9 59 9 43 16 57 29 57 10 0
21 -5 24 -10z m-2256 -96 c11 -47 11 -58 0 -65 -23 -14 -32 -5 -46 47 -15 57
-11 74 15 74 15 0 22 -12 31 -56z m2213 -93 c-1 -12 -10 -41 -20 -63 -15 -36
-19 -38 -36 -25 -18 13 -18 15 0 66 15 41 23 51 39 49 14 -2 19 -10 17 -27z
m-2162 -57 c19 -44 25 -74 16 -74 -2 0 -11 -3 -20 -6 -11 -4 -20 5 -31 32 -27
65 -29 82 -8 87 10 3 19 5 20 6 1 0 11 -20 23 -45z m2094 -80 c13 -5 12 -13
-9 -54 -29 -58 -42 -67 -62 -47 -13 13 -12 20 12 61 28 47 32 50 59 40z
m-2015 -81 c22 -35 27 -51 19 -60 -18 -22 -32 -14 -62 34 -26 44 -27 48 -10
60 10 7 19 13 21 13 2 0 16 -21 32 -47z m1923 -67 c17 -12 16 -16 -11 -54 -38
-51 -49 -58 -68 -39 -13 13 -11 20 19 60 18 25 35 46 38 46 3 0 13 -6 22 -13z
m-1823 -71 c28 -38 31 -48 21 -60 -17 -20 -21 -18 -64 34 -34 41 -35 44 -19
57 25 18 24 19 62 -31z m1686 -124 c-44 -44 -47 -45 -61 -26 -13 17 -11 23 28
62 40 40 43 42 60 26 18 -16 17 -19 -27 -62z m-1570 2 c36 -30 42 -40 34 -55
-13 -24 -17 -23 -69 21 -38 34 -43 41 -31 55 7 9 15 16 18 16 2 0 24 -16 48
-37z m1474 -62 c9 -15 3 -23 -35 -51 -44 -31 -74 -34 -74 -6 0 13 75 76 92 76
4 0 12 -8 17 -19z m-1338 -42 c42 -26 47 -34 38 -50 -5 -10 -12 -19 -15 -19
-3 0 -26 15 -53 33 -41 27 -47 35 -37 50 14 22 11 22 67 -14z m1199 -64 c0 -6
-24 -23 -52 -38 l-53 -26 -10 21 c-6 14 -6 23 0 25 6 2 28 14 50 27 40 24 65
21 65 -9z m-1047 -19 c47 -19 54 -29 38 -54 -6 -11 -20 -8 -64 14 -49 24 -54
30 -46 46 6 11 13 18 17 16 4 -2 28 -11 55 -22z m887 -45 c9 -17 4 -22 -46
-40 -59 -23 -74 -21 -74 9 0 13 13 23 43 33 56 21 65 20 77 -2z m-680 -48 c0
-28 -16 -28 -81 -5 -41 15 -46 20 -39 38 8 21 10 21 64 6 48 -13 56 -19 56
-39z m513 -3 c7 -25 2 -28 -67 -36 -55 -7 -56 -6 -56 19 0 22 5 26 38 30 77 8
80 7 85 -13z m-389 4 c40 -6 46 -10 46 -30 0 -23 -3 -24 -42 -18 -82 11 -87
13 -81 34 6 22 10 23 77 14z m216 -29 c0 -24 -3 -25 -60 -25 -57 0 -60 1 -60
25 0 24 3 25 60 25 57 0 60 -1 60 -25z"/>
</g>
</svg>
